<?xml version="1.0" encoding="utf-8"?>
<!-- Generator: Adobe Illustrator 24.1.0, SVG Export Plug-In . SVG Version: 6.00 Build 0)  -->
<svg version="1.1" id="Layer_1" xmlns="http://www.w3.org/2000/svg" xmlns:xlink="http://www.w3.org/1999/xlink" x="0px" y="0px"
	 viewBox="0 0 54.6177 26.5903" style="enable-background:new 0 0 54.6177 26.5903;" xml:space="preserve">
<style type="text/css">
	.st0{fill:#4DA6C8;}
	.st1{fill:#F2A842;}
	.st2{fill:#FFFFFF;stroke:#231F20;stroke-width:1.5;stroke-miterlimit:10;}
	.st3{fill:none;stroke:#231F20;stroke-width:1.5;stroke-miterlimit:10;}
	.st4{fill:none;}
	.st5{fill:#010937;}
	.st6{fill:#20507E;}
	.st7{fill:#FFFFFF;stroke:#20507E;stroke-width:0.9446;stroke-miterlimit:10;}
	.st8{fill:none;stroke:#010937;stroke-width:0.9446;stroke-miterlimit:10;}
	.st9{fill:#FFFFFF;stroke:#4DA6C8;stroke-width:0.9446;stroke-miterlimit:10;}
	.st10{fill:#FFFFFF;}
	.st11{fill:#D1D3D4;}
	.st12{fill:#333286;}
</style>
<polygon class="st5" points="1.2681,22.5786 1.2681,1.1272 50.5899,1.1272 50.5899,2.9958 51.5929,2.9958 51.5929,0.1242 
	0.2651,0.1242 0.2651,23.5816 3.1364,23.5816 3.1364,22.5786 "/>
<polygon class="st0" points="50.5899,22.5786 4.1394,22.5786 4.1394,23.5816 51.5929,23.5816 51.5929,3.9988 50.5899,3.9988 "/>
<polygon class="st1" points="50.5899,3.9988 50.5899,2.9958 3.1364,2.9958 3.1364,22.5786 4.1394,22.5786 4.1394,3.9988 "/>
<polygon class="st6" points="51.5929,2.9958 51.5929,3.9988 53.4612,3.9988 53.4612,25.4502 4.1394,25.4502 4.1394,23.5816 
	3.1364,23.5816 3.1364,26.4532 54.4642,26.4532 54.4642,2.9958 "/>
<path class="st6" d="M10.1878,13.7349h2.1262v-1.1826h-2.1262V9.8292h2.245V8.6366H8.9019v9.5897h3.5544l0.1665-1.1826h-2.4351
	V13.7349z M17.7646,11.5026c0,1.5705,0.0092,2.9199,0.0718,4.1459h-0.0183c-0.1247-0.6239-1.3491-5.4813-1.7879-7.012h-1.5046
	v9.5897h1.2055v-2.9597c0-1.7269-0.0072-3.1247-0.0745-4.2831h0.0143c0.1319,0.5547,1.4497,5.8219,1.8395,7.2428h1.4497V8.6366
	h-1.1957V11.5026z M21.4607,18.2263h1.2864v-4.4297h2.1647v-1.1924h-2.1647v-2.775h2.2822V8.6366h-3.5687V18.2263z M29.125,8.5014
	c-1.3981,0-2.2457,0.8456-2.2457,2.5947v4.6533c0,1.6975,0.6348,2.6118,2.1628,2.6118c1.5417,0,2.2862-0.8584,2.2862-2.6317v-4.6276
	C31.3283,9.3956,30.5636,8.5014,29.125,8.5014z M30.0177,15.8546c0,0.9668-0.2984,1.3442-0.9168,1.3442
	c-0.5799,0-0.9109-0.3974-0.9109-1.3126v-4.8881c0-0.9093,0.3069-1.3243,0.9064-1.3243c0.6387,0,0.9214,0.4493,0.9214,1.3187
	V15.8546z M35.5278,8.6366H33.636v9.5897h1.2858v-4.368h0.4486c0.8972,0,1.0579,0.304,1.0579,1.5039
	c0,0.6863-0.0241,2.277,0.1006,2.8641h1.246c-0.1052-0.5912-0.0908-2.1389-0.0908-2.9516c0-1.2936-0.3043-1.7197-0.8842-1.9669
	c0.4329-0.1649,0.9763-0.6066,0.9763-2.0083v-0.3961C37.7761,9.2363,36.9788,8.6366,35.5278,8.6366z M36.4858,11.3586
	c0,1.035-0.2671,1.4278-1.1036,1.4278h-0.4604V9.7085h0.4852c0.8894,0,1.0788,0.4819,1.0788,1.2799V11.3586z M44.1834,8.6366
	c-0.4427,2.454-1.0527,5.6674-1.2061,6.9584h-0.0144c-0.1293-1.2923-0.6171-4.3539-1.054-6.9584h-1.9127v9.5897h1.1754v-3.5507
	c0-1.6465-0.0477-3.8188-0.0764-4.9341h0.0287c0.224,1.7357,0.8522,6.0041,1.195,8.4849h1.2283
	c0.4564-2.8079,1.0716-6.8337,1.3001-8.4747h0.0144c-0.0287,1.068-0.0516,3.0411-0.0516,4.7245v3.7502H46.04V8.6366H44.1834z"/>
</svg>
